<svg width="24" height="24" viewBox="0 0 24 24" fill="none" xmlns="http://www.w3.org/2000/svg">
<path d="M23.1 12C23.1 5.8652 18.1355 0.9 12 0.9C5.8652 0.9 0.9 5.86452 0.9 12C0.9 18.0804 5.82284 23.1 12 23.1C18.1517 23.1 23.1 18.1084 23.1 12ZM12 2.38906C17.2994 2.38906 21.6109 6.70058 21.6109 12C21.6109 13.8963 21.0593 15.7204 20.0346 17.2761C15.6741 12.6893 8.33359 12.6812 3.96538 17.2761C2.9407 15.7204 2.38906 13.8963 2.38906 12C2.38906 6.70058 6.70058 2.38906 12 2.38906ZM4.89067 18.4667C8.69817 14.2734 15.3028 14.2744 19.1092 18.4667C15.2893 22.6636 8.71221 22.6649 4.89067 18.4667ZM12 13.1C14.2573 13.1 16.1 11.3283 16.1 9.14286V7.85714C16.1 5.67173 14.2573 3.9 12 3.9C9.74267 3.9 7.9 5.67173 7.9 7.85714V9.14286C7.9 11.3283 9.74267 13.1 12 13.1ZM9.43333 7.85714C9.43333 6.4978 10.5813 5.38571 12 5.38571C13.4187 5.38571 14.5667 6.4978 14.5667 7.85714V9.14286C14.5667 10.5022 13.4187 11.6143 12 11.6143C10.5813 11.6143 9.43333 10.5022 9.43333 9.14286V7.85714Z" fill="black" stroke="black" stroke-width="0.2"/>
</svg>
