<svg width="24" height="24" viewBox="0 0 24 24" fill="none" xmlns="http://www.w3.org/2000/svg">
<path d="M11.3372 15.8104L6.20618 11.4126C5.78684 11.0532 5.73827 10.4219 6.09768 10.0026C6.4571 9.58323 7.08839 9.53466 7.50773 9.89407L11.9998 13.7443L16.4918 9.89407C16.9111 9.53466 17.5424 9.58323 17.9018 10.0026C18.2613 10.4219 18.2127 11.0532 17.7934 11.4126L12.6625 15.8104C12.5904 15.8743 12.5109 15.9262 12.4267 15.9659C12.2913 16.0299 12.1453 16.0614 11.9998 16.0613C11.8523 16.0614 11.7043 16.029 11.5674 15.9633C11.4853 15.924 11.4077 15.8729 11.3372 15.8104Z" fill="black"/>
</svg>
