<svg width="10" height="10" viewBox="0 0 10 10" fill="none" xmlns="http://www.w3.org/2000/svg">
<path fill-rule="evenodd" clip-rule="evenodd" d="M9.64071 3.08211C10.0312 2.69158 10.0312 2.05842 9.64071 1.66789C9.25019 1.27737 8.61702 1.27737 8.2265 1.66789L3.68328 6.21111L1.76521 4.29305C1.37469 3.90253 0.741523 3.90253 0.350999 4.29305C-0.0395256 4.68357 -0.0395256 5.31674 0.350999 5.70726L2.97161 8.32787C2.97312 8.3294 2.97463 8.33093 2.97616 8.33245C3.31786 8.67416 3.84534 8.71687 4.2335 8.46059C4.28895 8.42398 4.34155 8.38127 4.39037 8.33245C4.39037 8.33244 4.39038 8.33244 4.39038 8.33244C4.39066 8.33216 4.39094 8.33188 4.39121 8.33161L9.64071 3.08211Z" fill="white"/>
</svg>
