<svg width="46" height="46" viewBox="0 0 46 46" fill="none" xmlns="http://www.w3.org/2000/svg">
<path d="M23 0C10.3164 0 0 10.3164 0 23C0 35.6836 10.3164 46 23 46C35.6836 46 46 35.6836 46 23C46 10.3164 35.6836 0 23 0ZM35 24H13.4141L19.707 30.293C20.0977 30.6836 20.0977 31.3164 19.707 31.707C19.5117 31.9023 19.2578 32 19 32C18.7422 32 18.4883 31.9023 18.293 31.707L10.293 23.707C10.1992 23.6133 10.1289 23.5039 10.0781 23.3828C9.97656 23.1367 9.97656 22.8633 10.0781 22.6172C10.1289 22.4961 10.1992 22.3867 10.293 22.293L18.293 14.293C18.6836 13.9023 19.3164 13.9023 19.707 14.293C20.0977 14.6836 20.0977 15.3164 19.707 15.707L13.4141 22H35C35.5547 22 36 22.4492 36 23C36 23.5508 35.5547 24 35 24Z" fill="#040047"/>
</svg>
