<svg width="24" height="24" viewBox="0 0 24 24" fill="none" xmlns="http://www.w3.org/2000/svg">
<path fill-rule="evenodd" clip-rule="evenodd" d="M12 3C7.02944 3 3 7.02944 3 12C3 16.9706 7.02944 21 12 21C16.9706 21 21 16.9706 21 12C21 7.02944 16.9706 3 12 3ZM1 12C1 5.92487 5.92487 1 12 1C18.0751 1 23 5.92487 23 12C23 18.0751 18.0751 23 12 23C5.92487 23 1 18.0751 1 12Z" fill="black"/>
<path fill-rule="evenodd" clip-rule="evenodd" d="M12.4 7.2C12.8418 6.86863 13.4686 6.95817 13.8 7.4L16.8 11.4C17.0667 11.7556 17.0667 12.2444 16.8 12.6L13.8 16.6C13.4686 17.0418 12.8418 17.1314 12.4 16.8C11.9582 16.4686 11.8686 15.8418 12.2 15.4L14.75 12L12.2 8.6C11.8686 8.15817 11.9582 7.53137 12.4 7.2Z" fill="black"/>
<path fill-rule="evenodd" clip-rule="evenodd" d="M7 12C7 11.4477 7.44772 11 8 11H16C16.5523 11 17 11.4477 17 12C17 12.5523 16.5523 13 16 13H8C7.44772 13 7 12.5523 7 12Z" fill="black"/>
</svg>
